<svg width="27" height="27" viewBox="0 0 27 27" fill="none" xmlns="http://www.w3.org/2000/svg">
<g filter="url(#filter0_d_605_1162)">
<path d="M8.29999 16.3V10.3C8.29999 9.75005 8.49582 9.27922 8.88749 8.88755C9.27915 8.49588 9.74999 8.30005 10.3 8.30005H18.45L15.875 5.72505L17.3 4.30005L22.3 9.30005L17.3 14.3L15.875 12.9L18.45 10.3H10.3V16.3H8.29999ZM6.29999 22.3C5.74999 22.3 5.27915 22.1042 4.88749 21.7125C4.49582 21.3209 4.29999 20.85 4.29999 20.3V5.30005H6.29999V20.3H18.3V16.3H20.3V20.3C20.3 20.85 20.1042 21.3209 19.7125 21.7125C19.3208 22.1042 18.85 22.3 18.3 22.3H6.29999Z" fill="#E3E3E3"/>
</g>
<defs>
<filter id="filter0_d_605_1162" x="-3.00001" y="-2.99995" width="32.6" height="32.6" filterUnits="userSpaceOnUse" color-interpolation-filters="sRGB">
<feFlood flood-opacity="0" result="BackgroundImageFix"/>
<feColorMatrix in="SourceAlpha" type="matrix" values="0 0 0 0 0 0 0 0 0 0 0 0 0 0 0 0 0 0 127 0" result="hardAlpha"/>
<feOffset/>
<feGaussianBlur stdDeviation="2.15"/>
<feComposite in2="hardAlpha" operator="out"/>
<feColorMatrix type="matrix" values="0 0 0 0 0 0 0 0 0 0 0 0 0 0 0 0 0 0 1 0"/>
<feBlend mode="normal" in2="BackgroundImageFix" result="effect1_dropShadow_605_1162"/>
<feBlend mode="normal" in="SourceGraphic" in2="effect1_dropShadow_605_1162" result="shape"/>
</filter>
</defs>
</svg>
