<svg width="20" height="20" viewBox="0 0 20 20" fill="none" xmlns="http://www.w3.org/2000/svg">
<g clip-path="url(#clip0_49_481)">
<path fill-rule="evenodd" clip-rule="evenodd" d="M10 15C12.7614 15 15 12.7614 15 10C15 7.23857 12.7614 5 10 5C7.23857 5 5 7.23857 5 10C5 12.7614 7.23857 15 10 15ZM10 13.3333C11.8409 13.3333 13.3333 11.8409 13.3333 10C13.3333 8.15905 11.8409 6.66667 10 6.66667C8.15905 6.66667 6.66667 8.15905 6.66667 10C6.66667 11.8409 8.15905 13.3333 10 13.3333Z" fill="white"/>
<path d="M15 4.16669C14.5397 4.16669 14.1667 4.53979 14.1667 5.00002C14.1667 5.46025 14.5397 5.83335 15 5.83335C15.4602 5.83335 15.8333 5.46025 15.8333 5.00002C15.8333 4.53979 15.4602 4.16669 15 4.16669Z" fill="white"/>
<path fill-rule="evenodd" clip-rule="evenodd" d="M1.37829 3.56336C0.833328 4.63292 0.833328 6.03306 0.833328 8.83331V11.1666C0.833328 13.9669 0.833328 15.3671 1.37829 16.4366C1.85766 17.3774 2.62256 18.1423 3.56338 18.6216C4.63294 19.1666 6.03307 19.1666 8.83333 19.1666H11.1667C13.9669 19.1666 15.3671 19.1666 16.4366 18.6216C17.3774 18.1423 18.1423 17.3774 18.6217 16.4366C19.1667 15.3671 19.1667 13.9669 19.1667 11.1666V8.83331C19.1667 6.03306 19.1667 4.63292 18.6217 3.56336C18.1423 2.62255 17.3774 1.85765 16.4366 1.37828C15.3671 0.833313 13.9669 0.833313 11.1667 0.833313H8.83333C6.03307 0.833313 4.63294 0.833313 3.56338 1.37828C2.62256 1.85765 1.85766 2.62255 1.37829 3.56336ZM11.1667 2.49998H8.83333C7.4057 2.49998 6.4352 2.50128 5.68506 2.56256C4.95436 2.62226 4.5807 2.73047 4.32003 2.86329C3.69282 3.18287 3.18289 3.6928 2.8633 4.32001C2.73049 4.58068 2.62228 4.95435 2.56258 5.68505C2.50129 6.43519 2.49999 7.40568 2.49999 8.83331V11.1666C2.49999 12.5943 2.50129 13.5647 2.56258 14.3149C2.62228 15.0456 2.73049 15.4193 2.8633 15.68C3.18289 16.3071 3.69282 16.8171 4.32003 17.1366C4.5807 17.2695 4.95436 17.3777 5.68506 17.4374C6.4352 17.4986 7.4057 17.5 8.83333 17.5H11.1667C12.5943 17.5 13.5647 17.4986 14.3149 17.4374C15.0457 17.3777 15.4193 17.2695 15.68 17.1366C16.3072 16.8171 16.8171 16.3071 17.1367 15.68C17.2695 15.4193 17.3777 15.0456 17.4374 14.3149C17.4987 13.5647 17.5 12.5943 17.5 11.1666V8.83331C17.5 7.40568 17.4987 6.43519 17.4374 5.68505C17.3777 4.95435 17.2695 4.58068 17.1367 4.32001C16.8171 3.6928 16.3072 3.18287 15.68 2.86329C15.4193 2.73047 15.0457 2.62226 14.3149 2.56256C13.5647 2.50128 12.5943 2.49998 11.1667 2.49998Z" fill="white"/>
</g>
<defs>
<clipPath id="clip0_49_481">
<rect width="20" height="20" fill="white"/>
</clipPath>
</defs>
</svg>
