<svg width="26" height="24" viewBox="0 0 26 24" fill="none" xmlns="http://www.w3.org/2000/svg">
<path d="M10.2579 8.42178L9.32935 11.2505L11.2287 11.245L10.2822 8.42178C10.2814 8.41922 10.2798 8.41698 10.2776 8.4154C10.2754 8.41382 10.2728 8.41296 10.2701 8.41296C10.2674 8.41296 10.2647 8.41382 10.2626 8.4154C10.2604 8.41698 10.2588 8.41922 10.2579 8.42178Z" fill="#3B1E1E"/>
<path d="M12.9702 6.87979e-05C5.79062 0.0207065 -0.016454 4.62956 3.50283e-05 10.2926C0.0105383 13.9341 2.42641 17.1256 6.0584 18.9346L4.84634 23.5087C4.82058 23.5849 4.8202 23.6673 4.84526 23.7437C4.87031 23.8201 4.91946 23.8863 4.98535 23.9325C5.05125 23.9786 5.13034 24.0023 5.21079 23.9998C5.29125 23.9974 5.36875 23.969 5.4317 23.9189L10.6917 20.3515C11.4662 20.4597 12.2475 20.5128 13.0295 20.5104C20.209 20.4898 26.0162 15.882 26 10.2181C25.9837 4.55411 20.1499 -0.0204561 12.9702 6.87979e-05ZM6.44521 12.9893C6.44634 13.3898 6.20883 13.6396 5.82507 13.6408C5.4413 13.6419 5.20289 13.3935 5.20176 12.9929L5.18877 8.48361L3.88083 8.48745C3.47052 8.48857 3.32404 8.1851 3.32325 7.92482C3.32082 7.85082 3.33338 7.77709 3.3602 7.70806C3.38701 7.63903 3.42752 7.57613 3.47929 7.52312C3.53107 7.47012 3.59303 7.42811 3.66147 7.39962C3.72991 7.37113 3.80341 7.35675 3.87756 7.35734L7.7361 7.34606C7.81029 7.34496 7.88394 7.35883 7.95262 7.38686C8.02131 7.41488 8.08361 7.45647 8.1358 7.50913C8.18799 7.56179 8.22899 7.62444 8.25633 7.69331C8.28368 7.76219 8.2968 7.83587 8.29492 7.90993C8.2956 8.1701 8.15059 8.47448 7.73938 8.47561L6.43223 8.47944L6.44521 12.9893ZM12.4638 13.6222C12.3281 13.6335 12.1926 13.5966 12.0814 13.518C11.9702 13.4395 11.8903 13.3242 11.8559 13.1926L11.5815 12.3442L8.98317 12.3517L8.70704 13.1919C8.67745 13.325 8.60085 13.443 8.49126 13.5243C8.38167 13.6056 8.24642 13.6448 8.11027 13.6347C8.03216 13.6381 7.95414 13.6259 7.8808 13.5989C7.80745 13.5719 7.74024 13.5305 7.68311 13.4772C7.62597 13.4239 7.58005 13.3598 7.54804 13.2885C7.51603 13.2173 7.49856 13.1404 7.49667 13.0624C7.49761 12.9686 7.51679 12.876 7.55314 12.7896L9.34435 8.00996C9.47265 7.65957 9.78232 7.28516 10.2673 7.28381C10.6934 7.28257 11.0318 7.54477 11.1955 8.00319L12.9587 12.7651C12.9993 12.8669 13.0233 12.9744 13.03 13.0838C13.029 13.1565 13.0134 13.2283 12.9843 13.2949C12.9552 13.3615 12.913 13.4217 12.8602 13.4718C12.8075 13.522 12.7453 13.5611 12.6772 13.5869C12.6091 13.6127 12.5366 13.6247 12.4638 13.6222ZM17.2395 12.9964C17.2366 13.071 17.2189 13.1443 17.1875 13.2121C17.1561 13.2799 17.1115 13.3408 17.0564 13.3914C17.0014 13.4419 16.9368 13.4811 16.8665 13.5067C16.7962 13.5322 16.7216 13.5436 16.6468 13.5403L14.3291 13.5468C13.9225 13.5481 13.6783 13.2917 13.677 12.8615L13.6628 7.922C13.6617 7.5221 13.8993 7.27287 14.2829 7.27185C14.6666 7.27084 14.9052 7.51849 14.9065 7.9185L14.9193 12.4151L16.6437 12.4102C16.7262 12.4062 16.8087 12.4194 16.8859 12.4489C16.963 12.4785 17.0332 12.5237 17.0919 12.5818C17.1434 12.6373 17.1831 12.7027 17.2085 12.7739C17.2338 12.8452 17.2444 12.9209 17.2395 12.9964ZM22.4176 13.1057C22.3703 13.558 21.9319 13.5943 21.7984 13.5946C21.766 13.5948 21.7336 13.5933 21.7013 13.5901C21.4716 13.5676 21.342 13.4236 21.1011 13.1008L19.461 10.8816L19.0155 11.3379L19.0204 13.0097C19.0206 13.0899 19.0045 13.1693 18.9731 13.2432C18.9417 13.317 18.8957 13.3838 18.8377 13.4394C18.7798 13.495 18.7112 13.5383 18.6361 13.5667C18.5609 13.5951 18.4808 13.608 18.4006 13.6047C18.0279 13.6058 17.7774 13.3679 17.7763 13.0132L17.7615 7.8735C17.7592 7.79172 17.7736 7.71031 17.8041 7.63435C17.8346 7.55839 17.8803 7.4895 17.9386 7.43196C17.9969 7.37442 18.0664 7.32946 18.1428 7.29988C18.2192 7.2703 18.3008 7.25673 18.3827 7.26001C18.4649 7.25443 18.5474 7.26628 18.6247 7.29479C18.702 7.32329 18.7724 7.3678 18.8313 7.4254C18.8902 7.483 18.9362 7.55238 18.9663 7.62899C18.9964 7.70559 19.0099 7.78769 19.006 7.8699L19.0117 9.85979L21.1953 7.57364C21.258 7.50431 21.3341 7.44835 21.419 7.40912C21.5039 7.3699 21.5958 7.34822 21.6893 7.34538C21.9899 7.35249 22.2926 7.55097 22.2858 7.91625C22.2858 8.08699 22.1841 8.19999 21.9808 8.42497C21.9349 8.47594 21.8841 8.53211 21.8293 8.59503L20.3365 10.1076L22.1141 12.4177C22.2977 12.6556 22.45 12.8524 22.4176 13.1057Z" fill="#3B1E1E"/>
</svg>
