<svg width="71" height="56" viewBox="0 0 71 56" fill="none" xmlns="http://www.w3.org/2000/svg">
<g clip-path="url(#clip0_247_497)">
<path d="M0 16.949C0 13.1112 3.11116 10 6.94897 10H64.0849C67.9227 10 71.0339 13.1112 71.0339 16.949V55.5543H0V16.949Z" fill="#AB1E1E"/>
<path d="M0 16.949C0 13.1112 3.11116 10 6.94897 10H26.2517C30.0895 10 33.2006 13.1112 33.2006 16.949V55.5543H0V16.949Z" fill="#5C1717"/>
<circle cx="31.6564" cy="22.3537" r="3.86054" transform="rotate(90 31.6564 22.3537)" fill="#5C1717"/>
<circle cx="31.6564" cy="21.5815" r="3.86054" transform="rotate(90 31.6564 21.5815)" fill="#AB1E1E"/>
<rect x="33.2006" y="1.50671" width="20.8469" height="3.08843" transform="rotate(90 33.2006 1.50671)" fill="#AB1E1E"/>
<path d="M40 41C40 41.0053 40 41.0107 40.0035 41.1976C40.007 41.3845 40.0141 41.7528 40.1584 42.6782C40.3027 43.6036 40.5841 45.0749 40.7532 46.1653C40.9224 47.2558 40.9707 47.9209 41.0139 48.3551C41.0756 48.9745 41.1351 49.2067 41.1472 49.3154C41.1867 49.6047 41.1973 49.9456 41.2201 50.2184C41.2259 50.2636 41.2301 50.2921 41.2344 50.3355" stroke="#5C1717" stroke-width="2" stroke-linecap="round"/>
<path d="M40.6175 41.4478C40.6127 41.443 41.1074 41.4382 41.9119 41.4406C42.3217 41.4418 42.5846 41.5107 42.9473 41.6274C43.155 41.6943 43.3983 41.8131 43.624 41.9342C44.3294 42.3128 44.4495 42.5119 44.5089 42.6348C44.5663 42.7533 44.5422 43.1619 44.3893 43.931C44.3395 44.1814 44.2124 44.3533 44.0884 44.5253C43.9781 44.6785 43.6945 44.8477 43.2739 45.0715C42.8427 45.3009 42.5239 45.3615 42.3553 45.3864C41.9071 45.4527 41.7308 45.3055 41.5967 45.2135C41.5123 45.1518 41.436 45.1018 41.382 45.0784C41.3545 45.0688 41.327 45.0637 41.2987 45.0585" stroke="#5C1717" stroke-width="2" stroke-linecap="round"/>
<path d="M48.2718 46.442C48.1583 46.442 47.8419 46.4543 47.1918 46.722C46.6246 46.9556 46.3117 47.2937 46.209 47.3993C46.1357 47.4745 46.0223 47.6921 45.8717 48.0176C45.6582 48.479 45.7569 48.8734 45.8737 49.1518C46.0061 49.4674 46.2034 49.5926 46.5325 49.8034C46.6212 49.8603 46.7137 49.8749 47.1259 49.8959C47.5381 49.917 48.2733 49.9333 48.696 49.9322C49.2072 49.9308 49.3323 49.8801 49.3956 49.85C49.51 49.7955 49.5249 49.6116 49.6246 48.89C49.6498 48.708 49.5223 48.4006 49.3413 47.9335C49.2406 47.6345 49.204 47.4982 49.1613 47.3567C49.125 47.243 49.0587 47.0441 48.9655 46.7745" stroke="#5C1717" stroke-width="2" stroke-linecap="round"/>
<path d="M55.9213 44.7953C55.9213 44.7937 55.8045 44.792 55.6066 44.7937C55.4831 44.7947 55.2026 44.8982 54.7472 45.0928C54.525 45.1878 54.338 45.3131 54.2032 45.4028C53.9903 45.5445 53.7966 45.766 53.5891 46.0283C53.3918 46.2775 53.3839 46.4126 53.3929 46.6753C53.4015 46.9279 53.6031 47.0614 53.7726 47.167C53.8169 47.1946 53.8657 47.2072 54.1258 47.2559C54.386 47.3046 54.8589 47.3841 55.13 47.4347C55.5908 47.5207 55.7787 47.7139 55.9208 47.8971C56.0706 48.0902 56.0869 48.3318 56.0894 48.8513C56.0912 49.2289 55.9223 49.476 55.795 49.6594C55.7169 49.7719 55.5634 49.867 55.3943 49.9732C55.2207 50.0823 54.9137 50.1552 54.5609 50.2296C54.3126 50.282 54.0489 50.2785 53.7821 50.2736C53.6247 50.2707 53.5379 50.2341 53.4686 50.2004C53.4069 50.1588 53.3494 50.1019 53.2558 49.9687C53.1903 49.8692 53.0881 49.7047 52.9564 49.4899" stroke="#5C1717" stroke-width="1.46547" stroke-linecap="round"/>
<path d="M59.7367 43.793C59.7367 43.7946 59.7367 43.7962 59.7367 44.664C59.7367 45.5317 59.7367 47.2654 59.742 48.2017C59.7487 49.3796 59.861 49.6429 59.954 49.8201C60.0333 49.971 60.2985 49.9514 60.9038 49.964C61.1672 49.9694 61.3448 49.8614 61.5658 49.8147C61.626 49.8035 61.691 49.7898 61.7478 49.7756C61.8045 49.7613 61.8512 49.747 61.9565 49.6757" stroke="#5C1717" stroke-width="1.56963" stroke-linecap="round"/>
<path d="M58.9564 46.0316C58.9564 46.0306 58.9564 46.0297 59.3405 46.0287C59.7245 46.0278 60.4926 46.0268 61.284 46.0259" stroke="#5C1717" stroke-width="1.56963" stroke-linecap="round"/>
</g>
<defs>
<clipPath id="clip0_247_497">
<rect width="71" height="56" fill="white"/>
</clipPath>
</defs>
</svg>
